<mxfile host="65bd71144e">
    <diagram id="VGdK8KnGvns72B47TYJ3" name="Page-1">
        <mxGraphModel dx="5010" dy="2815" grid="0" gridSize="10" guides="1" tooltips="1" connect="1" arrows="1" fold="1" page="1" pageScale="1" pageWidth="3300" pageHeight="2339" background="#333333" math="0" shadow="0">
            <root>
                <mxCell id="0"/>
                <mxCell id="1" parent="0"/>
                <mxCell id="13" value="" style="edgeStyle=none;html=1;" edge="1" parent="1" source="5" target="12">
                    <mxGeometry relative="1" as="geometry"/>
                </mxCell>
                <mxCell id="5" value="" style="ellipse;whiteSpace=wrap;html=1;aspect=fixed;" vertex="1" parent="1">
                    <mxGeometry x="182" y="208" width="128" height="128" as="geometry"/>
                </mxCell>
                <mxCell id="24" style="edgeStyle=orthogonalEdgeStyle;html=1;exitX=0.5;exitY=1;exitDx=0;exitDy=0;entryX=0.75;entryY=0;entryDx=0;entryDy=0;fontSize=19;" edge="1" parent="1" source="6" target="22">
                    <mxGeometry relative="1" as="geometry"/>
                </mxCell>
                <mxCell id="6" value="Step 4- Login" style="swimlane;whiteSpace=wrap;html=1;startSize=44;" vertex="1" parent="1">
                    <mxGeometry x="1221.25" y="455" width="216.5" height="123" as="geometry"/>
                </mxCell>
                <mxCell id="21" value="&lt;font style=&quot;font-size: 19px;&quot;&gt;login in postex with link&lt;/font&gt;" style="text;html=1;align=center;verticalAlign=middle;resizable=0;points=[];autosize=1;strokeColor=none;fillColor=none;fontSize=20;" vertex="1" parent="6">
                    <mxGeometry x="-0.5" y="67" width="212" height="36" as="geometry"/>
                </mxCell>
                <mxCell id="15" value="" style="edgeStyle=none;html=1;" edge="1" parent="1" source="12" target="14">
                    <mxGeometry relative="1" as="geometry"/>
                </mxCell>
                <mxCell id="12" value="&lt;font style=&quot;font-size: 20px;&quot;&gt;Step1 - rate notif&lt;/font&gt;" style="whiteSpace=wrap;html=1;" vertex="1" parent="1">
                    <mxGeometry x="406" y="220" width="172" height="104" as="geometry"/>
                </mxCell>
                <mxCell id="17" value="" style="edgeStyle=none;html=1;fontSize=20;" edge="1" parent="1" source="14" target="16">
                    <mxGeometry relative="1" as="geometry"/>
                </mxCell>
                <mxCell id="14" value="&lt;font style=&quot;font-size: 20px;&quot;&gt;step 2 - Link notif about amnito&lt;/font&gt;" style="whiteSpace=wrap;html=1;" vertex="1" parent="1">
                    <mxGeometry x="642" y="217" width="190" height="110" as="geometry"/>
                </mxCell>
                <mxCell id="19" value="" style="edgeStyle=none;html=1;fontSize=20;" edge="1" parent="1" source="16" target="18">
                    <mxGeometry relative="1" as="geometry"/>
                </mxCell>
                <mxCell id="16" value="&lt;font style=&quot;font-size: 20px;&quot;&gt;Step3 - add prsonal information in divar chat&lt;/font&gt;" style="whiteSpace=wrap;html=1;" vertex="1" parent="1">
                    <mxGeometry x="912" y="217" width="225" height="110" as="geometry"/>
                </mxCell>
                <mxCell id="20" style="edgeStyle=none;html=1;exitX=0.5;exitY=1;exitDx=0;exitDy=0;entryX=0.5;entryY=0;entryDx=0;entryDy=0;fontSize=20;" edge="1" parent="1" source="18" target="6">
                    <mxGeometry relative="1" as="geometry"/>
                </mxCell>
                <mxCell id="18" value="&lt;font style=&quot;font-size: 20px;&quot;&gt;Step3 - add prsonal information in divar chat&lt;/font&gt;" style="whiteSpace=wrap;html=1;" vertex="1" parent="1">
                    <mxGeometry x="1217" y="217" width="225" height="110" as="geometry"/>
                </mxCell>
                <mxCell id="22" value="" style="rounded=0;whiteSpace=wrap;html=1;fontSize=19;" vertex="1" parent="1">
                    <mxGeometry x="694" y="659" width="680" height="356" as="geometry"/>
                </mxCell>
                <mxCell id="42" style="edgeStyle=orthogonalEdgeStyle;html=1;exitX=0;exitY=0.5;exitDx=0;exitDy=0;entryX=0;entryY=0.5;entryDx=0;entryDy=0;fontSize=19;" edge="1" parent="1" source="29" target="39">
                    <mxGeometry relative="1" as="geometry">
                        <mxPoint x="728" y="770" as="sourcePoint"/>
                        <Array as="points">
                            <mxPoint x="772" y="770"/>
                            <mxPoint x="576" y="770"/>
                            <mxPoint x="576" y="1162"/>
                        </Array>
                    </mxGeometry>
                </mxCell>
                <mxCell id="26" value="Authorized" style="text;html=1;strokeColor=none;fillColor=none;align=center;verticalAlign=middle;whiteSpace=wrap;rounded=0;fontSize=19;" vertex="1" parent="1">
                    <mxGeometry x="966" y="671" width="60" height="30" as="geometry"/>
                </mxCell>
                <mxCell id="32" value="" style="edgeStyle=orthogonalEdgeStyle;html=1;fontSize=19;" edge="1" parent="1" source="29" target="31">
                    <mxGeometry relative="1" as="geometry"/>
                </mxCell>
                <mxCell id="29" value="&#10;&lt;span style=&quot;color: rgb(240, 240, 240); font-family: Helvetica; font-size: 19px; font-style: normal; font-variant-ligatures: normal; font-variant-caps: normal; font-weight: 400; letter-spacing: normal; orphans: 2; text-align: center; text-indent: 0px; text-transform: none; widows: 2; word-spacing: 0px; -webkit-text-stroke-width: 0px; background-color: rgb(42, 37, 47); text-decoration-thickness: initial; text-decoration-style: initial; text-decoration-color: initial; float: none; display: inline !important;&quot;&gt;User Found&lt;/span&gt;&#10;&#10;" style="rhombus;whiteSpace=wrap;html=1;fontSize=19;rounded=0;" vertex="1" parent="1">
                    <mxGeometry x="772" y="667" width="140" height="135" as="geometry"/>
                </mxCell>
                <mxCell id="34" value="" style="edgeStyle=orthogonalEdgeStyle;html=1;fontSize=19;" edge="1" parent="1" source="31" target="33">
                    <mxGeometry relative="1" as="geometry"/>
                </mxCell>
                <mxCell id="31" value="User NotFound" style="rounded=0;whiteSpace=wrap;html=1;fontSize=19;" vertex="1" parent="1">
                    <mxGeometry x="1044" y="734" width="156" height="72" as="geometry"/>
                </mxCell>
                <mxCell id="36" value="" style="edgeStyle=orthogonalEdgeStyle;html=1;fontSize=19;" edge="1" parent="1" source="33" target="35">
                    <mxGeometry relative="1" as="geometry"/>
                </mxCell>
                <mxCell id="33" value="Creat Accuont" style="rounded=0;whiteSpace=wrap;html=1;fontSize=19;" vertex="1" parent="1">
                    <mxGeometry x="1044" y="846" width="156" height="72" as="geometry"/>
                </mxCell>
                <mxCell id="43" style="edgeStyle=orthogonalEdgeStyle;html=1;exitX=0;exitY=0.5;exitDx=0;exitDy=0;entryX=0.25;entryY=0;entryDx=0;entryDy=0;fontSize=19;" edge="1" parent="1" source="35" target="39">
                    <mxGeometry relative="1" as="geometry"/>
                </mxCell>
                <mxCell id="35" value="Submit phone Number" style="rounded=0;whiteSpace=wrap;html=1;fontSize=19;" vertex="1" parent="1">
                    <mxGeometry x="808" y="846" width="156" height="72" as="geometry"/>
                </mxCell>
                <mxCell id="45" value="" style="edgeStyle=orthogonalEdgeStyle;html=1;fontSize=19;" edge="1" parent="1" source="39" target="44">
                    <mxGeometry relative="1" as="geometry"/>
                </mxCell>
                <mxCell id="39" value="step5- order" style="rounded=0;whiteSpace=wrap;html=1;fontSize=19;" vertex="1" parent="1">
                    <mxGeometry x="698" y="1112" width="220" height="100" as="geometry"/>
                </mxCell>
                <mxCell id="47" style="edgeStyle=orthogonalEdgeStyle;html=1;exitX=0.5;exitY=0;exitDx=0;exitDy=0;fontSize=19;" edge="1" parent="1" source="44" target="46">
                    <mxGeometry relative="1" as="geometry"/>
                </mxCell>
                <mxCell id="86" style="edgeStyle=orthogonalEdgeStyle;html=1;exitX=0.5;exitY=1;exitDx=0;exitDy=0;fontSize=19;" edge="1" parent="1" source="44" target="85">
                    <mxGeometry relative="1" as="geometry"/>
                </mxCell>
                <mxCell id="44" value="Order paid" style="rhombus;whiteSpace=wrap;html=1;fontSize=19;rounded=0;" vertex="1" parent="1">
                    <mxGeometry x="991" y="1098.5" width="139" height="123" as="geometry"/>
                </mxCell>
                <mxCell id="49" value="" style="edgeStyle=orthogonalEdgeStyle;html=1;fontSize=19;" edge="1" parent="1" source="46" target="48">
                    <mxGeometry relative="1" as="geometry"/>
                </mxCell>
                <mxCell id="46" value="step6- notif to sender" style="rounded=0;whiteSpace=wrap;html=1;fontSize=19;" vertex="1" parent="1">
                    <mxGeometry x="1222" y="1079" width="220" height="100" as="geometry"/>
                </mxCell>
                <mxCell id="51" value="" style="edgeStyle=orthogonalEdgeStyle;html=1;fontSize=19;" edge="1" parent="1" source="48" target="50">
                    <mxGeometry relative="1" as="geometry"/>
                </mxCell>
                <mxCell id="48" value="step6- notif to sender" style="rounded=0;whiteSpace=wrap;html=1;fontSize=19;" vertex="1" parent="1">
                    <mxGeometry x="1519.5" y="1112" width="220" height="100" as="geometry"/>
                </mxCell>
                <mxCell id="54" value="" style="edgeStyle=orthogonalEdgeStyle;html=1;fontSize=19;" edge="1" parent="1" source="50" target="52">
                    <mxGeometry relative="1" as="geometry"/>
                </mxCell>
                <mxCell id="92" style="edgeStyle=orthogonalEdgeStyle;html=1;exitX=0.5;exitY=1;exitDx=0;exitDy=0;fontSize=19;" edge="1" parent="1" source="50" target="53">
                    <mxGeometry relative="1" as="geometry"/>
                </mxCell>
                <mxCell id="50" value="order send" style="rhombus;whiteSpace=wrap;html=1;fontSize=19;rounded=0;" vertex="1" parent="1">
                    <mxGeometry x="1834.5" y="1101.5" width="129" height="121" as="geometry"/>
                </mxCell>
                <mxCell id="56" value="" style="edgeStyle=orthogonalEdgeStyle;html=1;fontSize=19;" edge="1" parent="1" source="52" target="55">
                    <mxGeometry relative="1" as="geometry"/>
                </mxCell>
                <mxCell id="52" value="step7- pickup order" style="rounded=0;whiteSpace=wrap;html=1;fontSize=19;" vertex="1" parent="1">
                    <mxGeometry x="2058" y="1110" width="220" height="100" as="geometry"/>
                </mxCell>
                <mxCell id="93" style="edgeStyle=orthogonalEdgeStyle;html=1;exitX=1;exitY=0.5;exitDx=0;exitDy=0;entryX=0;entryY=0.5;entryDx=0;entryDy=0;fontSize=19;" edge="1" parent="1" source="53" target="73">
                    <mxGeometry relative="1" as="geometry"/>
                </mxCell>
                <mxCell id="53" value="step6- cancel order" style="rounded=0;whiteSpace=wrap;html=1;fontSize=19;" vertex="1" parent="1">
                    <mxGeometry x="1789" y="1346" width="220" height="100" as="geometry"/>
                </mxCell>
                <mxCell id="58" value="" style="edgeStyle=orthogonalEdgeStyle;html=1;fontSize=19;" edge="1" parent="1" source="55" target="57">
                    <mxGeometry relative="1" as="geometry"/>
                </mxCell>
                <mxCell id="55" value="step8- notif for sender and recipient" style="rounded=0;whiteSpace=wrap;html=1;fontSize=19;" vertex="1" parent="1">
                    <mxGeometry x="2058" y="930" width="220" height="100" as="geometry"/>
                </mxCell>
                <mxCell id="60" value="" style="edgeStyle=orthogonalEdgeStyle;html=1;fontSize=19;" edge="1" parent="1" source="57" target="59">
                    <mxGeometry relative="1" as="geometry"/>
                </mxCell>
                <mxCell id="57" value="step8- check order status" style="rounded=0;whiteSpace=wrap;html=1;fontSize=19;" vertex="1" parent="1">
                    <mxGeometry x="2358" y="930" width="220" height="100" as="geometry"/>
                </mxCell>
                <mxCell id="62" style="edgeStyle=orthogonalEdgeStyle;html=1;exitX=0.5;exitY=1;exitDx=0;exitDy=0;entryX=0.5;entryY=0;entryDx=0;entryDy=0;fontSize=19;" edge="1" parent="1" source="59" target="61">
                    <mxGeometry relative="1" as="geometry"/>
                </mxCell>
                <mxCell id="95" style="edgeStyle=orthogonalEdgeStyle;html=1;exitX=0.5;exitY=0;exitDx=0;exitDy=0;entryX=0.5;entryY=1;entryDx=0;entryDy=0;fontSize=19;" edge="1" parent="1" source="59" target="94">
                    <mxGeometry relative="1" as="geometry"/>
                </mxCell>
                <mxCell id="59" value="" style="rhombus;whiteSpace=wrap;html=1;fontSize=19;rounded=0;" vertex="1" parent="1">
                    <mxGeometry x="2686" y="940" width="80" height="80" as="geometry"/>
                </mxCell>
                <mxCell id="64" value="" style="edgeStyle=orthogonalEdgeStyle;html=1;fontSize=19;" edge="1" parent="1" source="61" target="63">
                    <mxGeometry relative="1" as="geometry"/>
                </mxCell>
                <mxCell id="61" value="step9- delivered to the recipient" style="rounded=0;whiteSpace=wrap;html=1;fontSize=19;" vertex="1" parent="1">
                    <mxGeometry x="2616" y="1085" width="220" height="100" as="geometry"/>
                </mxCell>
                <mxCell id="66" value="" style="edgeStyle=orthogonalEdgeStyle;html=1;fontSize=19;" edge="1" parent="1" source="63" target="65">
                    <mxGeometry relative="1" as="geometry"/>
                </mxCell>
                <mxCell id="106" style="edgeStyle=orthogonalEdgeStyle;html=1;exitX=1;exitY=0.5;exitDx=0;exitDy=0;entryX=0;entryY=0.5;entryDx=0;entryDy=0;fontSize=19;" edge="1" parent="1" source="63" target="105">
                    <mxGeometry relative="1" as="geometry"/>
                </mxCell>
                <mxCell id="63" value="" style="rhombus;whiteSpace=wrap;html=1;fontSize=19;rounded=0;" vertex="1" parent="1">
                    <mxGeometry x="2686" y="1250" width="80" height="80" as="geometry"/>
                </mxCell>
                <mxCell id="70" value="" style="edgeStyle=orthogonalEdgeStyle;html=1;fontSize=19;" edge="1" parent="1" source="65" target="69">
                    <mxGeometry relative="1" as="geometry"/>
                </mxCell>
                <mxCell id="65" value="step10- check order" style="rounded=0;whiteSpace=wrap;html=1;fontSize=19;" vertex="1" parent="1">
                    <mxGeometry x="2411" y="1390" width="220" height="100" as="geometry"/>
                </mxCell>
                <mxCell id="72" value="" style="edgeStyle=orthogonalEdgeStyle;html=1;fontSize=19;" edge="1" parent="1" source="69" target="71">
                    <mxGeometry relative="1" as="geometry"/>
                </mxCell>
                <mxCell id="109" value="" style="edgeStyle=orthogonalEdgeStyle;html=1;fontSize=19;" edge="1" parent="1" source="69" target="108">
                    <mxGeometry relative="1" as="geometry"/>
                </mxCell>
                <mxCell id="69" value="confirmed" style="rhombus;whiteSpace=wrap;html=1;fontSize=19;rounded=0;" vertex="1" parent="1">
                    <mxGeometry x="2766.5" y="1388" width="119" height="102" as="geometry"/>
                </mxCell>
                <mxCell id="71" value="" style="whiteSpace=wrap;html=1;fontSize=19;rounded=0;" vertex="1" parent="1">
                    <mxGeometry x="2532" y="1598" width="585" height="358" as="geometry"/>
                </mxCell>
                <mxCell id="76" value="" style="edgeStyle=orthogonalEdgeStyle;html=1;fontSize=19;" edge="1" parent="1" source="73" target="75">
                    <mxGeometry relative="1" as="geometry"/>
                </mxCell>
                <mxCell id="73" value="Checking financial information" style="rounded=0;whiteSpace=wrap;html=1;fontSize=19;" vertex="1" parent="1">
                    <mxGeometry x="2559" y="1687" width="220" height="100" as="geometry"/>
                </mxCell>
                <mxCell id="74" value="Refund process" style="text;html=1;strokeColor=none;fillColor=none;align=center;verticalAlign=middle;whiteSpace=wrap;rounded=0;fontSize=19;" vertex="1" parent="1">
                    <mxGeometry x="2689" y="1613" width="145" height="30" as="geometry"/>
                </mxCell>
                <mxCell id="78" value="" style="edgeStyle=orthogonalEdgeStyle;html=1;fontSize=19;" edge="1" parent="1" source="75" target="77">
                    <mxGeometry relative="1" as="geometry"/>
                </mxCell>
                <mxCell id="80" value="" style="edgeStyle=orthogonalEdgeStyle;html=1;fontSize=19;" edge="1" parent="1" source="75" target="79">
                    <mxGeometry relative="1" as="geometry">
                        <Array as="points">
                            <mxPoint x="2856" y="1819"/>
                            <mxPoint x="2701" y="1819"/>
                        </Array>
                    </mxGeometry>
                </mxCell>
                <mxCell id="75" value="" style="rhombus;whiteSpace=wrap;html=1;fontSize=19;rounded=0;" vertex="1" parent="1">
                    <mxGeometry x="2816" y="1697" width="80" height="80" as="geometry"/>
                </mxCell>
                <mxCell id="84" value="" style="edgeStyle=orthogonalEdgeStyle;html=1;fontSize=19;" edge="1" parent="1" source="77" target="83">
                    <mxGeometry relative="1" as="geometry"/>
                </mxCell>
                <mxCell id="77" value="Deposit in 48 hours" style="rounded=0;whiteSpace=wrap;html=1;fontSize=19;" vertex="1" parent="1">
                    <mxGeometry x="2933" y="1697" width="175" height="85" as="geometry"/>
                </mxCell>
                <mxCell id="82" style="edgeStyle=orthogonalEdgeStyle;html=1;exitX=1;exitY=0.5;exitDx=0;exitDy=0;fontSize=19;" edge="1" parent="1" source="79" target="77">
                    <mxGeometry relative="1" as="geometry"/>
                </mxCell>
                <mxCell id="79" value="Correction of information" style="rounded=0;whiteSpace=wrap;html=1;fontSize=19;" vertex="1" parent="1">
                    <mxGeometry x="2591" y="1844" width="220" height="100" as="geometry"/>
                </mxCell>
                <mxCell id="83" value="" style="ellipse;whiteSpace=wrap;html=1;fontSize=19;rounded=0;" vertex="1" parent="1">
                    <mxGeometry x="3171" y="1146" width="80" height="80" as="geometry"/>
                </mxCell>
                <mxCell id="88" value="" style="edgeStyle=orthogonalEdgeStyle;html=1;fontSize=19;" edge="1" parent="1" source="85" target="87">
                    <mxGeometry relative="1" as="geometry"/>
                </mxCell>
                <mxCell id="90" value="" style="edgeStyle=orthogonalEdgeStyle;html=1;fontSize=19;" edge="1" parent="1" source="85" target="89">
                    <mxGeometry relative="1" as="geometry"/>
                </mxCell>
                <mxCell id="85" value="step5- order suspended" style="rounded=0;whiteSpace=wrap;html=1;fontSize=19;" vertex="1" parent="1">
                    <mxGeometry x="964" y="1318" width="220" height="100" as="geometry"/>
                </mxCell>
                <mxCell id="87" value="step5- notif for Sender" style="rounded=0;whiteSpace=wrap;html=1;fontSize=19;" vertex="1" parent="1">
                    <mxGeometry x="664" y="1318" width="220" height="100" as="geometry"/>
                </mxCell>
                <mxCell id="91" style="edgeStyle=orthogonalEdgeStyle;html=1;exitX=1;exitY=0.5;exitDx=0;exitDy=0;entryX=1;entryY=0.5;entryDx=0;entryDy=0;fontSize=19;" edge="1" parent="1" source="89" target="44">
                    <mxGeometry relative="1" as="geometry"/>
                </mxCell>
                <mxCell id="89" value="step5- notif for recipient&lt;br&gt;&amp;nbsp;" style="rounded=0;whiteSpace=wrap;html=1;fontSize=19;" vertex="1" parent="1">
                    <mxGeometry x="954.5" y="1501" width="239" height="100" as="geometry"/>
                </mxCell>
                <mxCell id="97" value="" style="edgeStyle=orthogonalEdgeStyle;html=1;fontSize=19;" edge="1" parent="1" source="94" target="96">
                    <mxGeometry relative="1" as="geometry"/>
                </mxCell>
                <mxCell id="94" value="missing order" style="rounded=0;whiteSpace=wrap;html=1;fontSize=19;" vertex="1" parent="1">
                    <mxGeometry x="2616" y="734" width="220" height="100" as="geometry"/>
                </mxCell>
                <mxCell id="96" value="" style="rounded=0;whiteSpace=wrap;html=1;fontSize=19;" vertex="1" parent="1">
                    <mxGeometry x="2518" y="380" width="616" height="273" as="geometry"/>
                </mxCell>
                <mxCell id="101" value="" style="edgeStyle=orthogonalEdgeStyle;html=1;fontSize=19;" edge="1" parent="1" source="98" target="100">
                    <mxGeometry relative="1" as="geometry"/>
                </mxCell>
                <mxCell id="98" value="Follow up of missing request by support" style="rounded=0;whiteSpace=wrap;html=1;fontSize=19;" vertex="1" parent="1">
                    <mxGeometry x="2535" y="397" width="251" height="102" as="geometry"/>
                </mxCell>
                <mxCell id="104" style="edgeStyle=orthogonalEdgeStyle;html=1;exitX=0;exitY=0.5;exitDx=0;exitDy=0;entryX=0;entryY=0;entryDx=0;entryDy=0;fontSize=19;" edge="1" parent="1" source="99" target="71">
                    <mxGeometry relative="1" as="geometry">
                        <Array as="points">
                            <mxPoint x="2325" y="576"/>
                            <mxPoint x="2325" y="1598"/>
                        </Array>
                    </mxGeometry>
                </mxCell>
                <mxCell id="99" value="missing order" style="rounded=0;whiteSpace=wrap;html=1;fontSize=19;" vertex="1" parent="1">
                    <mxGeometry x="2631" y="526" width="220" height="100" as="geometry"/>
                </mxCell>
                <mxCell id="102" style="edgeStyle=orthogonalEdgeStyle;html=1;exitX=1;exitY=0.5;exitDx=0;exitDy=0;entryX=1;entryY=0.5;entryDx=0;entryDy=0;fontSize=19;" edge="1" parent="1" source="100" target="61">
                    <mxGeometry relative="1" as="geometry">
                        <Array as="points">
                            <mxPoint x="3008" y="449"/>
                            <mxPoint x="3008" y="1135"/>
                        </Array>
                    </mxGeometry>
                </mxCell>
                <mxCell id="103" style="edgeStyle=orthogonalEdgeStyle;html=1;exitX=0.5;exitY=1;exitDx=0;exitDy=0;entryX=1;entryY=0.5;entryDx=0;entryDy=0;fontSize=19;" edge="1" parent="1" source="100" target="99">
                    <mxGeometry relative="1" as="geometry"/>
                </mxCell>
                <mxCell id="100" value="Order Found" style="rhombus;whiteSpace=wrap;html=1;fontSize=19;rounded=0;" vertex="1" parent="1">
                    <mxGeometry x="2883" y="397" width="119" height="104" as="geometry"/>
                </mxCell>
                <mxCell id="107" style="edgeStyle=orthogonalEdgeStyle;html=1;exitX=0.25;exitY=1;exitDx=0;exitDy=0;entryX=1;entryY=0.25;entryDx=0;entryDy=0;fontSize=19;" edge="1" parent="1" source="105" target="65">
                    <mxGeometry relative="1" as="geometry">
                        <Array as="points">
                            <mxPoint x="2764" y="1340"/>
                            <mxPoint x="2764" y="1415"/>
                        </Array>
                    </mxGeometry>
                </mxCell>
                <mxCell id="105" value="step9- notif for recipient&amp;nbsp;" style="rounded=0;whiteSpace=wrap;html=1;fontSize=19;" vertex="1" parent="1">
                    <mxGeometry x="2855" y="1240" width="220" height="100" as="geometry"/>
                </mxCell>
                <mxCell id="110" style="edgeStyle=orthogonalEdgeStyle;html=1;entryX=0.75;entryY=0;entryDx=0;entryDy=0;fontSize=19;" edge="1" parent="1" source="108" target="71">
                    <mxGeometry relative="1" as="geometry"/>
                </mxCell>
                <mxCell id="108" value="step12-Return of the shipment" style="rounded=0;whiteSpace=wrap;html=1;fontSize=19;" vertex="1" parent="1">
                    <mxGeometry x="2922" y="1390" width="220" height="100" as="geometry"/>
                </mxCell>
            </root>
        </mxGraphModel>
    </diagram>
</mxfile>